# xmcd
#
# Track frame offsets: 
#        150
#        16797
#        36563
#        53416
#        74226
#        92729
#        111373
#        128844
#        141530
#        162058
#        178452
#        192560
#        212068
#        228486
#        246360
#
# Disc length: 3528 seconds
#
# Revision: 0
# Processed by: cddbd v1.5.2PL0 Copyright (c) Steve Scherf et al.
# Submitted via: ExactAudioCopyFreeDBPlugin 1.0
#
DISCID=e80dc60f
DTITLE=群唱 - 呼唤与温暖B
DYEAR=2012
DGENRE=Acid Jazz
TTITLE0=少林，少林
TTITLE1=潜海姑娘
TTITLE2=青海青
TTITLE3=妈妈留给我一首歌
TTITLE4=原野牧歌
TTITLE5=我怎能把你遗忘
TTITLE6=南泥湾
TTITLE7=红色娘子军
TTITLE8=故乡情
TTITLE9=洪湖水浪打浪
TTITLE10=清晨
TTITLE11=太阳岛上
TTITLE12=乡恋
TTITLE13=驼铃
TTITLE14=九九艳阳天
EXTD=
EXTT0=
EXTT1=
EXTT2=
EXTT3=
EXTT4=
EXTT5=
EXTT6=
EXTT7=
EXTT8=
EXTT9=
EXTT10=
EXTT11=
EXTT12=
EXTT13=
EXTT14=
PLAYORDER=
